<?xml version="1.0" encoding="utf-8"?>
<!-- Generator: Adobe Illustrator 21.0.2, SVG Export Plug-In . SVG Version: 6.00 Build 0)  -->
<svg version="1.1" id="Layer_1" xmlns="http://www.w3.org/2000/svg" xmlns:xlink="http://www.w3.org/1999/xlink" x="0px" y="0px"
	 viewBox="0 0 595.3 363.8" style="enable-background:new 0 0 595.3 363.8;" xml:space="preserve">
<style type="text/css">
	.st0{fill:#221A16;}
	.st1{fill:#D34D85;stroke:#D55C8D;stroke-width:0.25;stroke-miterlimit:10;}
	.st2{fill:#CB5388;}
	.st3{fill:#1C1515;}
</style>
<g>
	<g>
		<g>
			<path class="st0" d="M99,34.2c11.7-1.6,23.3-2.7,35-3.7c11.7-1,23.4-1.7,35.1-2.4c5.9-0.3,11.7-0.6,17.6-0.8l8.8-0.3l8.8-0.2
				c5.9-0.2,11.7-0.2,17.6-0.3c5.9-0.1,11.7,0,17.6,0l0,0l0.1,0L381.2,46l17.7,2.3c5.9,0.7,11.8,1.5,17.7,2.1
				c11.9,1.1,23.7,2.7,35.5,4.7c23.5,4,46.9,9.3,69.5,17.4l-0.9,0l24-9.4l11.9-4.8l5.9-2.4c1.9-0.8,4-1.7,5.8-2.6l4.8-2.4l-3.1,4.2
				c-3,4-6,7.9-9.2,11.8c-3.2,3.8-6.4,7.6-10,11.2L550,76c2.2,0.3,4.4,0.5,6.7,0.7c2.2,0.2,4.5,0.4,6.6,0.5l7.5,0.1l-7.1,2.2
				c-3.7,1.1-7.3,2.4-11,3.7c-1.8,0.7-3.6,1.3-5.4,2.1c-1.7,0.7-3.5,1.5-4.9,2.5l0.2-1.5c4.8,6.9,9.7,13.8,14.6,20.7
				c2.4,3.4,4.9,6.9,7.4,10.3l3.8,5.1c0.6,0.8,1.3,1.7,1.9,2.5l1,1.2l1,1.1l-0.1-0.1l15.2,10l7.6,4.9c2.5,1.6,5.1,3.3,7.6,4.8
				l0.9,0.5l-0.7,0.7l-17.7,17.5l-0.2,0.2l-0.4,0c-3.1-0.1-6.1-0.3-9.2-0.2l-4.6,0.1l-4.6,0.2c-3.1,0.1-6.2,0.3-9.3,0.5
				c-3.1,0.2-6.2,0.4-9.3,0.6c-12.4,0.9-24.7,2.2-37.1,3.5c-12.4,1.3-24.7,2.7-37,4.1c-12.3,1.5-24.7,3-37,4.6l0.3-0.2
				c-0.9,1.6-1.5,3.4-2.2,5.1c-0.6,1.8-1.2,3.6-1.7,5.4c-1,3.6-1.9,7.3-2.8,11c-0.8,3.7-1.5,7.4-2.2,11.1c-0.7,3.7-1.3,7.5-1.9,11.2
				l-0.1-0.3l19.4,34.3l0.4,0.8l-0.9,0c-6.2,0.3-12.3,0.5-18.5,0.7c-3.1,0.1-6.2,0.1-9.2,0.1c-3.1,0-6.2,0-9.3-0.4l-0.3,0l-0.1-0.3
				c-7.3-15.2-14.6-30.3-22-45.4l-11.1-22.6l-5.6-11.3c-1-1.9-1.9-3.8-2.9-5.6l-1.5-2.8l-1.5-2.7l1.6-0.2l-10.9,37l-5.4,18.5
				c-1.8,6.2-3.6,12.4-5.1,18.5l-0.3,1.2l-1.1-0.4c-5.4-2-10.7-4-16-6.1c-2.7-1.1-5.3-2.2-7.9-3.3c-2.6-1.1-5.3-2.3-7.8-3.6
				l-1.1-0.5l0.6-1.1c1.5-2.8,3-5.5,4.6-8.2c0.8-1.3,1.6-2.7,2.5-4c0.9-1.3,1.7-2.6,2.8-3.9l-0.3,0.7c0.6-7.3,1-14.6,1.4-22
				c0.2-3.7,0.3-7.3,0.4-11c0-1.8,0-3.7,0-5.5c0-0.9,0-1.8-0.1-2.7c0-0.9-0.2-1.7-0.3-2.5l1.4,1l-179.6,13.3l1.4-1.2
				c-1.3,4.7-2.5,9.5-3.7,14.3c-0.6,2.4-1.1,4.8-1.6,7.2c-0.2,1.2-0.5,2.4-0.7,3.6c-0.2,1.2-0.3,2.4-0.4,3.4l-0.5-1.1
				c6.9,6.7,13.7,13.5,20.4,20.4c3.3,3.5,6.7,6.9,9.9,10.5c1.6,1.8,3.2,3.6,4.8,5.5c0.8,0.9,1.6,1.9,2.3,2.9c0.8,0.9,1.5,2,2.2,3.1
				l1.7,2.4l-3,0l-32.4-0.4l-0.8,0l-0.5-0.6l-21.2-27.4l2.5-1.8c4.3,6.9,8.6,13.8,12.7,20.8c2.1,3.5,4.1,7,6.1,10.5
				c2,3.5,4,7.1,5.8,10.9l0.5,1l-0.8,0.7c-2.5,2.3-5.1,4.5-7.7,6.5c-1.3,1-2.7,2.1-4.1,3c-1.4,1-2.9,1.9-4.6,2.6l-1.2,0.5l-0.6-1.2
				c-1.7-3.2-3.5-6.4-5.3-9.6c-0.9-1.6-1.8-3.2-2.8-4.7c-0.9-1.5-1.9-3.1-2.9-4.4l2.3-0.1c-0.5,0.7-1.1,1.6-1.5,2.4
				c-0.5,0.8-1,1.6-1.4,2.5c-0.9,1.7-1.7,3.4-2.1,5.1l-0.9,3.6l-1.7-3.3l-11.2-21.8l-5.6-10.9c-1.8-3.7-3.7-7.3-5.5-11l0.6,0.6
				l-12.2-6.9l-6.1-3.5c-2-1.2-4-2.3-6.1-3.6l-0.9-0.6l0.5-1c1.9-3.9,3.8-7.6,5.9-11.3c2.1-3.7,4.3-7.4,6.9-10.8l0.4,1.8
				c-6.2-3.1-12.5-6.2-18.7-9.2c-3.1-1.5-6.3-3-9.5-4.4c-3.2-1.4-6.4-2.8-9.5-3.8l-0.3-0.1l-0.2-0.2l-27.9-29.4l-0.2-0.2l0-0.4
				c-0.1-6.5-0.2-13-0.3-19.5c0-3.3,0-6.5,0-9.8c0.1-3.3,0.1-6.5,0.4-9.8l0.1,0.5c-2.3-4.5-4.6-9.1-6.9-13.7
				C3.6,86.6,1.3,82-0.7,77.3l-0.2-0.5l0.4-0.3c0.3-0.2,0.5-0.3,0.7-0.4c0.2-0.1,0.4-0.2,0.7-0.3c0.4-0.2,0.9-0.3,1.3-0.4
				C3.1,75.2,4,75.1,4.8,75c1.7-0.1,3.5-0.1,5.2,0c1.7,0.1,3.4,0.3,5.1,0.5c1.7,0.2,3.4,0.5,5.1,0.9l-0.4,0.1L99,34.2z M99.1,34.5
				l-78.7,43l-0.2,0.1l-0.2,0c-1.7-0.3-3.3-0.6-5-0.8c-1.7-0.2-3.4-0.4-5-0.5c-1.7-0.1-3.4-0.1-5,0.1c-0.8,0.1-1.6,0.2-2.4,0.4
				c-0.4,0.1-0.8,0.2-1.1,0.3c-0.2,0.1-0.4,0.1-0.5,0.2c-0.2,0.1-0.4,0.2-0.4,0.2l0.2-0.8c2,4.6,4.3,9.2,6.5,13.8
				c2.3,4.5,4.6,9.1,7,13.6l0.1,0.2l0,0.3c-0.3,3.2-0.3,6.4-0.3,9.7c0,3.2,0,6.5,0,9.7c0.1,6.5,0.2,13,0.4,19.5l-0.2-0.6l28,29.2
				l-0.5-0.3c3.5,1,6.7,2.5,9.9,3.8c3.2,1.4,6.4,2.9,9.5,4.4c6.3,3,12.6,6,18.8,9.1l1.3,0.6l-0.8,1.2c-2.4,3.4-4.6,7-6.7,10.6
				c-2,3.7-4,7.4-5.8,11.2l-0.5-1.6c1.9,1.2,4,2.4,6,3.5l6.1,3.5l12.2,6.8L92,225l0.2,0.4c1.7,3.6,3.6,7.3,5.5,10.9l5.6,10.9
				l11.3,21.7l-2.6,0.3c0.5-2.1,1.4-4,2.3-5.8c0.5-0.9,1-1.8,1.5-2.6c0.5-0.9,1.1-1.7,1.7-2.5l1.1-1.6l1.2,1.5
				c1.3,1.6,2.2,3.2,3.2,4.7c1,1.6,1.9,3.2,2.8,4.8c1.8,3.2,3.6,6.4,5.4,9.6l-1.9-0.7c1.3-0.6,2.7-1.4,4.1-2.3
				c1.3-0.9,2.7-1.9,3.9-2.9c2.6-2,5.1-4.2,7.5-6.4l-0.3,1.7c-1.7-3.6-3.7-7.1-5.7-10.6c-2-3.5-4-7-6.1-10.5
				c-4.2-7-8.4-13.9-12.7-20.7l2.5-1.8l21.2,27.4l-1.2-0.6l32.4,0.3l-1.4,2.4c-1.2-1.9-2.7-3.7-4.2-5.5c-1.5-1.8-3.1-3.6-4.7-5.4
				c-3.2-3.5-6.5-7-9.9-10.4c-6.7-6.9-13.5-13.7-20.4-20.3l-0.5-0.5l0-0.7c0-1.4,0.2-2.7,0.4-3.9c0.2-1.3,0.4-2.5,0.7-3.7
				c0.5-2.5,1.1-4.9,1.6-7.3c1.2-4.8,2.4-9.6,3.7-14.4l0.3-1.1l1.2-0.1l179.6-12.9l1.2-0.1l0.2,1.1c0.2,1,0.3,2,0.3,2.9
				c0.1,1,0.1,1.9,0.1,2.8c0,1.9,0,3.7,0,5.6c-0.1,3.7-0.3,7.4-0.4,11c-0.4,7.4-0.9,14.7-1.5,22l0,0.4l-0.2,0.3
				c-0.9,1.1-1.8,2.4-2.6,3.7c-0.8,1.3-1.6,2.6-2.4,3.9c-1.6,2.6-3.1,5.3-4.6,8l-0.5-1.6c2.5,1.3,5.1,2.5,7.7,3.6
				c2.6,1.1,5.2,2.2,7.9,3.3c5.3,2.1,10.6,4.2,15.9,6.2l-1.4,0.8c1.7-6.3,3.5-12.4,5.3-18.6l5.5-18.5l11.1-37l0.6-2l1,1.8l1.5,2.8
				l1.5,2.8c1,1.9,1.9,3.8,2.9,5.6l5.6,11.3l11,22.7c7.3,15.2,14.5,30.4,21.7,45.6l-0.5-0.3c3,0.4,6.1,0.4,9.1,0.5
				c3.1,0,6.1,0,9.2-0.1c6.1-0.1,12.3-0.4,18.4-0.7l-0.4,0.8l-19.3-34.4l-0.1-0.1l0-0.2c0.6-3.7,1.2-7.5,1.9-11.2
				c0.7-3.7,1.4-7.4,2.2-11.2c0.8-3.7,1.7-7.4,2.8-11c0.5-1.8,1.1-3.6,1.7-5.4c0.7-1.8,1.3-3.6,2.3-5.3l0.1-0.2l0.2,0
				c12.3-1.6,24.6-3.2,37-4.6c12.3-1.5,24.7-2.9,37-4.2c12.4-1.3,24.7-2.6,37.1-3.6c3.1-0.3,6.2-0.5,9.3-0.7
				c3.1-0.2,6.2-0.4,9.3-0.6l4.7-0.2l4.7-0.1c3.1-0.1,6.2,0.1,9.4,0.1l-0.6,0.2l17.6-17.7l0.2,1.3c-2.6-1.6-5.2-3.2-7.7-4.8
				l-7.6-4.9l-15.2-9.9l-0.1-0.1l-0.1-0.1l-1.1-1.3l-1-1.2c-0.7-0.8-1.3-1.7-2-2.5l-3.8-5.1c-2.5-3.4-5-6.8-7.5-10.2
				c-5-6.8-9.9-13.7-14.7-20.6l-0.6-0.9l0.9-0.6c1.8-1.2,3.6-2,5.4-2.8c1.8-0.8,3.6-1.5,5.5-2.1c3.7-1.3,7.3-2.6,11-3.8l0.4,2.3
				c-2.4,0-4.6-0.2-6.8-0.4c-2.2-0.2-4.5-0.4-6.7-0.7l-2.5-0.3l1.8-1.8c3.4-3.5,6.7-7.2,9.8-11c3.1-3.8,6.2-7.7,9.1-11.7l1.6,1.9
				c-2,1-4,1.8-6,2.7l-6,2.5l-11.9,4.8l-24,9.5l-0.5,0.2l-0.5-0.2c-11.2-4-22.6-7.2-34.1-10.1c-11.5-2.8-23.2-5.2-34.9-7.2
				c-11.7-2-23.5-3.6-35.3-4.7c-3-0.3-6-0.7-8.9-1l-8.9-1.1l-17.7-2.4c-23.6-3.2-47.2-6.5-70.8-9.9l-70.7-10.2l0.1,0
				c-5.9,0-11.7-0.1-17.6-0.1c-5.9,0-11.7,0-17.6,0.1c-11.7,0.1-23.4,0.5-35.2,0.9c-11.7,0.5-23.4,1.2-35.1,2
				C122.4,32.2,110.7,33.1,99.1,34.5z"/>
		</g>
		<g>
			<g>
				<path class="st0" d="M555.4,139.1c-0.5,0.2-1.2,0.4-2,0.6c-0.8,0.2-1.8,0.4-2.7,0.4c-1,0.1-2.1-0.1-3.1-0.3
					c-1-0.2-2-0.4-2.9-0.4l-0.6,0l0.2-0.6c0.4-1.3,0.4-2.7,1.2-4c0.4-0.7,0.9-1.3,1.8-1.8c0.8-0.5,1.8-0.6,2.7-0.5
					c0.9,0.1,1.7,0.5,2.3,1c0.6,0.5,1.1,1,1.5,1.6c0.4,0.6,0.8,1.2,1,1.8l0.2,0.5l0.2,0.6C555.4,138.5,555.4,138.9,555.4,139.1z
					 M555.2,139c-0.3-0.3-0.7-0.4-0.9-0.5l-0.2,0c-0.1,0-0.1-0.1-0.2-0.1l-0.4-0.3c-0.3-0.2-0.5-0.4-0.8-0.5
					c-0.2-0.2-0.5-0.3-0.7-0.5c-1-0.7-1.9-1.1-2.6-1.3c-0.3-0.1-0.6-0.1-1,0c-0.3,0.1-0.7,0.3-1.1,0.6c-0.8,0.6-1.8,1.6-2.1,2.8
					l-0.4-0.6c0.9,0.1,1.7-0.1,2.4-0.4c0.7-0.2,1.4-0.4,2.2-0.3c0.8,0.1,1.6,0.2,2.6,0.4C552.8,138.5,553.9,138.7,555.2,139z"/>
			</g>
			<g>
				<path class="st0" d="M552.9,118.4c-1.7,2-3.5,3.8-5.3,5.6l-5.3,5.3c-1.7,1.8-3.4,3.6-5,5.5c-1.5,1.9-3,3.9-4,6.3
					c-0.2-1.3,0-2.7,0.4-4c0.4-1.3,0.9-2.5,1.6-3.7c1.3-2.3,3-4.4,4.8-6.3c1.8-1.9,3.8-3.5,5.9-5.1
					C548.3,120.7,550.5,119.4,552.9,118.4z"/>
			</g>
		</g>
	</g>
	<polygon class="st1" points="48.1,6.6 82.8,40.5 34.6,72.2 75,90.9 34.6,114.9 75,127.1 48.1,161.4 82.8,170.2 57.8,186.2 
		100.4,189.7 65.4,224.2 145,191.8 136.7,40.5 	"/>
	<g>
		<path class="st2" d="M484.5,69.3l-10.3-3c0,0-7.7,0.3-19.9,5.7l-4.1,16.6l5.6,16.4l5.9,3.8l8.4-2.3l17.5-25.9l7-0.6l9.5-8.9
			l1.5-3.6l6.2,1.3l11.8-3l8.1-7.6l5.7-26.4l-1.3-9.8l-6.5-2.7l-25.1,33.4L484.5,69.3z"/>
		<path class="st3" d="M489.4,82.9c0,0,0.3-8.3-2.4-16.6c0,0-5.5,2.1,0.3,18.3L489.4,82.9z"/>
		<path class="st3" d="M505.5,70c0,0,0.6-8.4-1-17.5c0,0-4.2,0.8-0.6,18.7L505.5,70z"/>
	</g>
	<g>
		<path class="st1" d="M45.4,306.1l-0.2,15.7c0,0.9,0,2.3,0,4.2c0,1.9,0,3.3,0,4.3c0,1.3,0.5,2.2,1.3,2.6c0.6,0.3,1.7,0.4,3.3,0.4
			h2.3v-16.6h-2.6v-10.5h14.6v37.6l-12.9,0.2c-9.2,0-14.7-1.1-16.3-3.3c-1.2-1.6-1.8-7.2-1.8-16.9v-17.5H45.4z"/>
		<path class="st1" d="M102.4,324v19.7H88.3v-10.5h2.2l0.1-8.4c0-0.7,0-1.4,0-2.1c0-0.7,0-1.3,0-1.9c0-1.6-0.3-2.6-0.9-3.2
			c-0.8-0.7-2.4-1.1-4.8-1.1h-1.1v27.1H71.5v-27.1h-2.1v-10.5l15.4-0.2c8.5,0,13.6,0.9,15.3,2.8C101.7,310.4,102.4,315.5,102.4,324z
			"/>
		<path class="st1" d="M121.7,306.1v37.6h-12.2v-27.1h-2.1v-10.5H121.7z M121.7,302.3h-12.2v-11.8h12.2V302.3z"/>
		<path class="st1" d="M138.3,306.1l5.1,22.7l2.6-13.2h-1.6v-9.5h14.4v7.2l-9.2,30.4h-13.2l-11.1-37.6H138.3z"/>
		<path class="st1" d="M175.8,329.4c0,1.7,0.3,2.8,0.9,3.3c0.6,0.5,1.7,0.7,3.2,0.7h1.5h1.3v-1.8h11.9v12.1l-11.4,0.2
			c-8.7,0-14.2-1.3-16.4-4c-2-2.4-3-8-3-16.9c0-6.3,0.9-10.6,2.6-13c2.1-2.9,6.2-4.4,12.3-4.4c6.7,0,11.1,1.3,13.2,3.8
			c1.9,2.2,2.8,6.7,2.8,13.5v6.7H175.8z M175.4,320h7.4v-1.4c0-1.2-0.3-2-1-2.4c-0.7-0.4-1.7-0.6-2.9-0.6c-1.5,0-2.4,0.3-2.8,0.9
			C175.6,317.2,175.4,318.3,175.4,320z"/>
		<path class="st1" d="M228.4,320v3.4h-11.1v-2.7v-1c0-1.3-0.2-2.1-0.5-2.5c-0.4-0.4-1.2-0.6-2.6-0.6v16.6h2.9v10.5H202v-27.1h-2.1
			v-10.5l11-0.2c7,0,11.5,0.6,13.4,1.8C227,309.4,228.4,313.5,228.4,320z"/>
		<path class="st1" d="M260.2,317.5h-11.1v-2.1l-2.5-0.1c-0.8,0-1.4,0.2-1.7,0.5c-0.3,0.4-0.5,1-0.5,1.9c0,0.5,0.9,1,2.8,1.5
			c0.7,0.2,1.9,0.5,3.6,0.9c3.9,1,6.5,2.1,7.8,3.3c1.7,1.6,2.6,4.2,2.6,7.9c0,5-1.4,8.4-4.3,10.2c-2.2,1.4-6,2.1-11.4,2.1h-13.1V331
			h11.3v2.4l2.4,0.1c0.9,0,1.6-0.1,2.1-0.3c0.5-0.2,0.8-0.7,0.8-1.4c0-0.7-2.4-1.8-7.3-3.3c-4.9-1.5-7.8-3.6-8.7-6.3
			c-0.2-0.5-0.3-1.1-0.4-1.9c-0.1-0.8-0.1-1.6-0.1-2.4c0-5.1,1.3-8.4,4-10c2-1.2,5.7-1.8,11.2-1.8h12.3V317.5z"/>
		<path class="st1" d="M278.1,329.4c0,1.7,0.3,2.8,0.9,3.3c0.6,0.5,1.7,0.7,3.2,0.7h1.5h1.3v-1.8h11.9v12.1l-11.4,0.2
			c-8.7,0-14.2-1.3-16.4-4c-2-2.4-3-8-3-16.9c0-6.3,0.9-10.6,2.6-13c2.1-2.9,6.2-4.4,12.3-4.4c6.7,0,11.1,1.3,13.2,3.8
			c1.9,2.2,2.8,6.7,2.8,13.5v6.7H278.1z M277.7,320h7.4v-1.4c0-1.2-0.3-2-1-2.4c-0.7-0.4-1.7-0.6-2.9-0.6c-1.5,0-2.4,0.3-2.8,0.9
			C277.9,317.2,277.7,318.3,277.7,320z"/>
		<path class="st1" d="M348.8,327.6c0,7.5-1.4,12.3-4.3,14.1c-2,1.3-7.1,2-15.1,2v11.8h-12.2v-38.9H315v-10.5l13.2-0.2
			c9.4,0,15.3,1.3,17.5,3.9C347.8,312.1,348.8,318,348.8,327.6z M330.6,316.5h-1.2v16.6h2c2.4,0,3.9-0.4,4.7-1.2
			c0.5-0.6,0.8-1.9,0.8-3.9v-2.1c0-0.8,0-1.5,0-2.2c0-0.7,0-1.4,0-2.1c0-1.9-0.3-3.1-1-3.8C334.9,317,333.2,316.5,330.6,316.5z"/>
		<path class="st1" d="M367.7,306.1v37.6h-12.2v-27.1h-2.1v-10.5H367.7z M367.7,302.3h-12.2v-11.8h12.2V302.3z"/>
		<path class="st1" d="M405.8,324v19.7h-14.1v-10.5h2.2l0.1-8.4c0-0.7,0-1.4,0-2.1c0-0.7,0-1.3,0-1.9c0-1.6-0.3-2.6-0.9-3.2
			c-0.8-0.7-2.4-1.1-4.8-1.1h-1.1v27.1H375v-27.1h-2.1v-10.5l15.4-0.2c8.5,0,13.6,0.9,15.3,2.8C405.1,310.4,405.8,315.5,405.8,324z"
			/>
		<path class="st1" d="M425.1,290.6v28.5l4.3-5.2h-1.2v-7.8h15.9v7.4l-8,7.7l10.4,22.4h-14.1c0-0.7-0.8-3.1-2.4-7.1
			c-0.7-1.7-1.7-4.3-3.2-7.6l-1.7,1.6v13.1h-12.2v-41.3h-2.1v-11.8H425.1z"/>
	</g>
</g>
</svg>
